<svg xmlns="http://www.w3.org/2000/svg" viewBox="0 0 448.22 725.37"><defs><style>.cls-1{fill:#231f20;}.cls-2{fill:#fff;}.cls-3{fill:#a7a9ac;}.cls-4{fill:#d1d3d4;}.cls-5{fill:#fbb040;}.cls-6{fill:#f7941d;}.cls-7{fill:#be1e2d;}</style></defs><g id="Layer_2" data-name="Layer 2"><g id="Layer_2-2" data-name="Layer 2"><path class="cls-1" d="M439.7,147.89A21,21,0,0,0,419,130.14a376.52,376.52,0,0,0-117.62,18.1,198,198,0,0,0-61.68-37.75l21.36,5,4.08-25.63a11,11,0,0,0,10.32-18,11.22,11.22,0,0,0-18.72,12c-2.54,1.24-23.11,10.83-45.12.24C191.43,74.36,182.88,54.32,182,51.24l11,.69v-4.8h-6.25l.11-3.69L181.89,45V13.77s4.56,4.08,10.32,3.12l-6.48,15.6a16.79,16.79,0,0,0,20.16,0l-8.4-15.36s4.56.48,3.6-3.36l-6-1.2A17.1,17.1,0,0,0,187.56,9c-3.49-.71-5.17.59-6.65,1l-.86-2.6a4,4,0,0,0,1.71-3.29,4.06,4.06,0,1,0-6.16,3.46,11,11,0,0,0-.8,2.12,18.76,18.76,0,0,0-8.41.69A21.9,21.9,0,0,0,161,13.05l-7-.36.12.63a5.1,5.1,0,0,0,3.67,3.9l.57.15-8.64,16.32a21.45,21.45,0,0,0,21.12,0l-7.68-15.84c5.76,0,11-4.08,11-4.08l-.48,30.48-4.18-.8.39,3.58-6.93.06v4.84c3.92-.32,5.84-.64,9.76-1-1,3.38-6.77,22.32-26.4,32.64-22.24,11.7-43.82,2.64-46.56,1.44,2.54-6.14.25-13-4.8-15.84a12.35,12.35,0,0,0-13.11,1,11.41,11.41,0,0,0,9.27,20.16L95,112.89c-5.08,1.09-28.08,6.54-37,25.92a37.68,37.68,0,0,0-2.88,9.43c-6.28,3.73-31.45,19.64-39.84,51-8.55,32,3.72,67.43,31.26,90.72L6.26,342.19a30,30,0,0,0-4.34,28.87A968.93,968.93,0,0,0,234.47,725.37a471.75,471.75,0,0,0,81.82-73.44c86-97.74,108-205.64,120-268.8A686.83,686.83,0,0,0,439.7,147.89ZM202.87,31a20.44,20.44,0,0,1-8.32,1.67,16.62,16.62,0,0,1-6.24-1.49l6.55-13.72C197.6,22.28,200.6,26.46,202.87,31Zm-35.6.52a16.51,16.51,0,0,1-13.76,0l7-13.71Z"/><path class="cls-1" d="M146.85,77.77a65.61,65.61,0,0,1-23.36,6.47c1-4.4,2.06-8.82,3.08-13.23a11.41,11.41,0,0,1-.74-22.17A12.32,12.32,0,0,1,138.29,53c3.54,4.62,3,11.78-1.7,16.46A54.7,54.7,0,0,0,146.85,77.77Z"/><path class="cls-1" d="M209,77.77a65.66,65.66,0,0,0,23.36,6.47c-1-4.4-2-8.82-3.08-13.23a11.41,11.41,0,0,0,.74-22.17A12.33,12.33,0,0,0,217.59,53c-3.53,4.62-3,11.78,1.71,16.46A55.3,55.3,0,0,1,209,77.77Z"/><path class="cls-2" d="M308.13,228.56c1.3,1.52,121.08,142.41,12.95,294.23,0,0,14.4-142.56-51.84-218.16,0,0,15.12,49,10.8,79.2,0,0-13.75-58.32-78-114.62A15,15,0,0,0,205,270h0c3.92.77,11.48,1.48,26.08,1.48,0,0,53-6.72,66.48,21.6,0,0-4.08-31.2-56.64-57.6,0,0-61.41-17.75-68.63-33.11.48.34,17.55,12.2,53.51,10.07,0,0-20.64-3.6-29.28-8.88,0,0,32.15,1,38.64-35a34.7,34.7,0,0,1,6.68.3c2.31.36,4.63,1.06,5.9,2.42a3.79,3.79,0,0,1,.62.88s5.28-20.88-34.8-17.76l8.4-6.48s-10.32-4.32-29,9.36c0,0-15.11,10.56-38.65,8.56h0A74.73,74.73,0,0,1,138,162.55s-40.8-8.4-23.76-21.6L86.6,153.67s-9.84,5-13.68,0c0,0,65.76-78.72,184.8-13,0,0,105.12,56.16,124.8,171.84C382.52,312.55,349.89,252.56,308.13,228.56Z"/><path class="cls-2" d="M241.84,168.85a34.7,34.7,0,0,0-6.68-.3c-6.49,36-38.64,35-38.64,35C228.92,194,221,167.35,221,167.35h19.68Z"/><path class="cls-3" d="M248.36,172.15a3.79,3.79,0,0,0-.62-.88c-6.34-18.45-36.1-11.6-36.1-11.6-28.56,13.93-56.45,6.41-57.37,6.16,23.54,2,38.65-8.56,38.65-8.56,18.72-13.68,29-9.36,29-9.36l-8.4,6.48C253.64,151.27,248.36,172.15,248.36,172.15Z"/><path class="cls-3" d="M276.08,221.11c-12.24-5.76-30.6-4.68-30.6-4.68,59,23.76,76.32,95,76.32,95-1.44-65.52-62.64-124.08-62.64-124.08Z"/><path class="cls-4" d="M321.08,522.79l-43.2-97.2c12.4,77.3-50.16,195.12-50.16,195.12L186.8,576.43C207.89,549.36,219,475.6,219.54,472.15c-3.37,19.12-38.5,58.2-38.5,58.2,10.44-23.4,20.16-89.28,20.16-89.28-45.72,86.76-94.68,109.8-94.68,109.8l27-78.48-14.4,13.32-20.52-36,19.8-30.24c2.52,11.88-2.52,41.4-2.52,41.4,31.68-15.12,51.12-75.6,51.12-75.6,4.32,14-2.16,80.64-2.16,80.64,35.28-36,49-124.56,49-124.56l35.28,51.48c-1-24.5-7.84-47.57-16.15-67.09a258,258,0,0,0-34.6-58.54l2.5,1.06h0c0,.17.19.53,1.2.95,64.25,56.3,78,114.62,78,114.62,4.32-30.24-10.8-79.2-10.8-79.2C335.48,380.23,321.08,522.79,321.08,522.79Z"/><path class="cls-3" d="M249.08,392.83,213.8,341.35s-13.68,88.56-49,124.56c0,0,6.48-66.6,2.16-80.64,0,0-19.44,60.48-51.12,75.6,0,0,5-29.52,2.52-41.4L98.6,449.71,61.16,382.39S90,332.66,91.4,318.65c0,0,8.64,58.7,0,89.66,0,0,33.12-76.32,30.24-110.16,0,0,18,74.88,15.84,128.16,0,0,20.88-101.52,13.68-128.16,0,0,31.37,28.91,38.86,68.29-.34-3-7.62-65.34-10.65-73.53l53.56,32.83C241.24,345.26,248.05,368.33,249.08,392.83Z"/><path class="cls-5" d="M57.25,270c-19.77-25.95-30.87-55.81-14.16-82.35-2.47,18.66-4,42.21,1.87,52.15,0,0,1.08-22.68,4-25.92C48.92,213.91,51.74,245.91,57.25,270Z"/><path class="cls-5" d="M143.8,182.52c-36.57,8.06-52,34.27-52,34.27C91,210,98.6,196.63,98.6,196.63c-23.66,20.67-24.06,42.88-22.06,54.62a33.21,33.21,0,0,0-.83,15.21c-8.22-10.1-16.1-32.7,6.69-79.07,0,0-11.66,3.19-21.24,26.52,0,0-1-38.38,60.76-51.59A53,53,0,0,1,143.8,182.52Z"/><path class="cls-6" d="M232.52,256h0c-4.29-7.09-18.78-19-65.46-32,1.12.47,19,8.16,23.35,17.62,0,0-42.31-31.65-90.83-9.6l2.27-2.64c-7.46,2-14.31,5.1-19.8,10.8a37.5,37.5,0,0,0-5.5,11.06c-2-11.74-1.6-33.95,22.06-54.62,0,0-7.56,13.32-6.84,20.16,0,0,15.47-26.21,52-34.27a66.16,66.16,0,0,1,5.92,12.31c-9.7.12-17.68,3.3-24.84,7.92l32.4,1.8c9,15.84,33.84,18,59,30.6C241.16,244.51,232.52,256,232.52,256Z"/><path class="cls-7" d="M232.51,256c-.43.47-12,12.63-36-3.61-11.37-7.77-24.69-10.23-39.24-9.36,15.82,7.81,27.47,21.86,37.36,38.52-12.16-7.2-52.12-52.56-106.12-36.72l11-12.84c48.52-22.05,90.83,9.6,90.83,9.6-4.38-9.46-22.23-17.15-23.35-17.62C213.73,237.07,228.22,249,232.51,256Z"/><path class="cls-2" d="M82.4,187.39c-22.79,46.37-14.91,69-6.69,79.07A49.75,49.75,0,0,0,82,283l.36,14.4A219.6,219.6,0,0,1,57.25,270c-5.51-24.12-8.33-56.12-8.33-56.12-2.88,3.24-4,25.92-4,25.92-5.88-9.94-4.34-33.49-1.87-52.15,6-9.56,15.67-18.69,29.83-27.05,18.35-5.84,35.32-5,49,1.69-61.81,13.21-60.76,51.59-60.76,51.59C70.74,190.58,82.4,187.39,82.4,187.39Z"/><path class="cls-6" d="M201.89,176.56l-2.24,12.7a40.8,40.8,0,0,1-5,1.13c-7.58,0-11.23-1-15.4-3.48,15.94-2.91,9.93-5.9,8.58-6.09a42.81,42.81,0,0,1-4.15-1.47A95.09,95.09,0,0,0,201.89,176.56Z"/><path class="cls-7" d="M199.65,189.26l2.24-12.7a62.4,62.4,0,0,0,7.59-2.49C211.38,182.49,207.21,187,199.65,189.26Z"/><path class="cls-2" d="M179.24,186.91c-2.92-1.7-6.09-4.1-11-7.32,5.3.14,10.47.09,15.47-.24a42.81,42.81,0,0,0,4.15,1.47C189.17,181,195.18,184,179.24,186.91Z"/></g></g></svg>